<mxfile host="app.diagrams.net" modified="2020-09-27T18:41:38.719Z" agent="5.0 (Windows NT 10.0; Win64; x64) AppleWebKit/537.36 (KHTML, like Gecko) Chrome/85.0.4183.121 Safari/537.36 Edg/85.0.564.63" etag="-A9Hbxgrd3fzex6KYIwa" version="13.7.5" type="github">
  <diagram name="Page-1" id="03018318-947c-dd8e-b7a3-06fadd420f32">
    <mxGraphModel dx="1038" dy="500" grid="1" gridSize="10" guides="1" tooltips="1" connect="1" arrows="1" fold="1" page="1" pageScale="1" pageWidth="1100" pageHeight="850" background="#ffffff" math="0" shadow="0">
      <root>
        <mxCell id="0" />
        <mxCell id="1" parent="0" />
        <mxCell id="677b7b8949515195-2" value="LOGO" style="whiteSpace=wrap;html=1;rounded=0;shadow=0;labelBackgroundColor=none;strokeWidth=1;fontFamily=Verdana;fontSize=28;align=center;comic=1;" parent="1" vertex="1">
          <mxGeometry x="40" y="15" width="190" height="50" as="geometry" />
        </mxCell>
        <mxCell id="677b7b8949515195-6" value="History" style="text;html=1;points=[];align=left;verticalAlign=top;spacingTop=-4;fontSize=16;fontFamily=Verdana" parent="1" vertex="1">
          <mxGeometry x="905" y="30" width="60" height="20" as="geometry" />
        </mxCell>
        <mxCell id="677b7b8949515195-9" value="" style="line;strokeWidth=1;html=1;rounded=0;shadow=0;labelBackgroundColor=none;fillColor=none;fontFamily=Verdana;fontSize=14;fontColor=#000000;align=center;comic=1;" parent="1" vertex="1">
          <mxGeometry x="20" y="80" width="1060" height="10" as="geometry" />
        </mxCell>
        <mxCell id="677b7b8949515195-10" value="" style="whiteSpace=wrap;html=1;rounded=0;shadow=0;labelBackgroundColor=none;strokeWidth=1;fillColor=none;fontFamily=Verdana;fontSize=12;align=center;comic=1;" parent="1" vertex="1">
          <mxGeometry x="30" y="100" width="1040" height="50" as="geometry" />
        </mxCell>
        <mxCell id="677b7b8949515195-11" value="&lt;span style=&quot;font-size: 20px&quot;&gt;Register&lt;/span&gt;" style="text;html=1;points=[];align=left;verticalAlign=top;spacingTop=-4;fontSize=14;fontFamily=Verdana" parent="1" vertex="1">
          <mxGeometry x="40" y="110" width="60" height="20" as="geometry" />
        </mxCell>
        <mxCell id="0GJplUMi5tLApPQeOf5C-3" value="Cart" style="text;html=1;points=[];align=left;verticalAlign=top;spacingTop=-4;fontSize=16;fontFamily=Verdana" parent="1" vertex="1">
          <mxGeometry x="845" y="30" width="60" height="20" as="geometry" />
        </mxCell>
        <mxCell id="0GJplUMi5tLApPQeOf5C-4" value="lang: en/vi" style="text;html=1;points=[];align=left;verticalAlign=top;spacingTop=-4;fontSize=16;fontFamily=Verdana" parent="1" vertex="1">
          <mxGeometry x="975" y="30" width="80" height="20" as="geometry" />
        </mxCell>
        <mxCell id="0GJplUMi5tLApPQeOf5C-15" style="edgeStyle=orthogonalEdgeStyle;rounded=0;orthogonalLoop=1;jettySize=auto;html=1;" parent="1" edge="1">
          <mxGeometry relative="1" as="geometry">
            <mxPoint x="320" y="125" as="targetPoint" />
          </mxGeometry>
        </mxCell>
        <mxCell id="0GJplUMi5tLApPQeOf5C-20" value="" style="whiteSpace=wrap;html=1;rounded=0;shadow=0;labelBackgroundColor=none;strokeWidth=1;fontFamily=Verdana;fontSize=12;align=center;comic=1;perimeterSpacing=1;" parent="1" vertex="1">
          <mxGeometry x="375" y="170" width="500" height="590" as="geometry" />
        </mxCell>
        <mxCell id="0GJplUMi5tLApPQeOf5C-82" value="&lt;b&gt;Login&lt;/b&gt;" style="text;html=1;points=[];align=left;verticalAlign=top;spacingTop=-4;fontSize=16;fontFamily=Verdana" parent="1" vertex="1">
          <mxGeometry x="772.5" y="30" width="60" height="20" as="geometry" />
        </mxCell>
        <mxCell id="0GJplUMi5tLApPQeOf5C-83" value="&lt;font style=&quot;font-size: 20px&quot;&gt;1900 - 1234&lt;/font&gt;" style="text;html=1;points=[];align=left;verticalAlign=top;spacingTop=-4;fontSize=16;fontFamily=Verdana" parent="1" vertex="1">
          <mxGeometry x="925" y="110" width="130" height="20" as="geometry" />
        </mxCell>
        <mxCell id="8kEFat8YF8Pz-7dSZ5Ea-11" value="First Name" style="strokeWidth=1;shadow=0;dashed=0;align=center;html=1;shape=mxgraph.mockup.forms.anchor;align=right;spacingRight=2;fontColor=#666666;" parent="1" vertex="1">
          <mxGeometry x="418.75" y="330" width="50" height="33" as="geometry" />
        </mxCell>
        <mxCell id="8kEFat8YF8Pz-7dSZ5Ea-12" value="Tien Dat" style="strokeWidth=1;shadow=0;dashed=0;align=center;html=1;shape=mxgraph.mockup.forms.rrect;fillColor=#ffffff;rSize=0;fontColor=#666666;align=left;spacingLeft=3;strokeColor=#999999;" parent="1" vertex="1">
          <mxGeometry x="471.25" y="330" width="148.75" height="33" as="geometry" />
        </mxCell>
        <mxCell id="8kEFat8YF8Pz-7dSZ5Ea-31" value="Register Now" style="strokeWidth=1;shadow=0;dashed=0;align=center;html=1;shape=mxgraph.mockup.buttons.button;strokeColor=#666666;fontColor=#ffffff;mainText=;buttonStyle=round;fontSize=17;fontStyle=1;fillColor=#008cff;whiteSpace=wrap;" parent="1" vertex="1">
          <mxGeometry x="420" y="680" width="410" height="50" as="geometry" />
        </mxCell>
        <mxCell id="2N2N0fNqwzzeD85MLVDU-29" value="Re-Password" style="strokeWidth=1;shadow=0;dashed=0;align=center;html=1;shape=mxgraph.mockup.forms.anchor;align=right;spacingRight=2;fontColor=#666666;" parent="1" vertex="1">
          <mxGeometry x="418.75" y="450" width="50" height="33" as="geometry" />
        </mxCell>
        <mxCell id="2N2N0fNqwzzeD85MLVDU-30" value="Password" style="strokeWidth=1;shadow=0;dashed=0;align=center;html=1;shape=mxgraph.mockup.forms.anchor;align=right;spacingRight=2;fontColor=#666666;" parent="1" vertex="1">
          <mxGeometry x="418.75" y="392" width="50" height="33" as="geometry" />
        </mxCell>
        <mxCell id="2N2N0fNqwzzeD85MLVDU-31" value="Email" style="strokeWidth=1;shadow=0;dashed=0;align=center;html=1;shape=mxgraph.mockup.forms.anchor;align=right;spacingRight=2;fontColor=#666666;" parent="1" vertex="1">
          <mxGeometry x="418.75" y="270" width="50" height="33" as="geometry" />
        </mxCell>
        <mxCell id="2N2N0fNqwzzeD85MLVDU-32" value="DatPTHE141311@fpt.edu.vn" style="strokeWidth=1;shadow=0;dashed=0;align=center;html=1;shape=mxgraph.mockup.forms.rrect;fillColor=#ffffff;rSize=0;fontColor=#666666;align=left;spacingLeft=3;strokeColor=#999999;" parent="1" vertex="1">
          <mxGeometry x="471.25" y="270" width="352.5" height="33" as="geometry" />
        </mxCell>
        <mxCell id="2N2N0fNqwzzeD85MLVDU-33" value="Last Name" style="strokeWidth=1;shadow=0;dashed=0;align=center;html=1;shape=mxgraph.mockup.forms.anchor;align=right;spacingRight=2;fontColor=#666666;" parent="1" vertex="1">
          <mxGeometry x="640" y="330" width="50" height="33" as="geometry" />
        </mxCell>
        <mxCell id="2N2N0fNqwzzeD85MLVDU-34" value="Pham&amp;nbsp;" style="strokeWidth=1;shadow=0;dashed=0;align=center;html=1;shape=mxgraph.mockup.forms.rrect;fillColor=#ffffff;rSize=0;fontColor=#666666;align=left;spacingLeft=3;strokeColor=#999999;" parent="1" vertex="1">
          <mxGeometry x="700" y="330" width="123.75" height="33" as="geometry" />
        </mxCell>
        <mxCell id="2N2N0fNqwzzeD85MLVDU-35" value="User Name" style="strokeWidth=1;shadow=0;dashed=0;align=center;html=1;shape=mxgraph.mockup.forms.anchor;align=right;spacingRight=2;fontColor=#666666;" parent="1" vertex="1">
          <mxGeometry x="418.75" y="210" width="50" height="33" as="geometry" />
        </mxCell>
        <mxCell id="2N2N0fNqwzzeD85MLVDU-36" value="JDat" style="strokeWidth=1;shadow=0;dashed=0;align=center;html=1;shape=mxgraph.mockup.forms.rrect;fillColor=#ffffff;rSize=0;fontColor=#666666;align=left;spacingLeft=3;strokeColor=#999999;" parent="1" vertex="1">
          <mxGeometry x="471.25" y="210" width="352.5" height="33" as="geometry" />
        </mxCell>
        <mxCell id="2N2N0fNqwzzeD85MLVDU-50" value="0987654321" style="strokeWidth=1;shadow=0;dashed=0;align=center;html=1;shape=mxgraph.mockup.forms.rrect;fillColor=#ffffff;rSize=0;fontColor=#666666;align=left;spacingLeft=3;strokeColor=#999999;" parent="1" vertex="1">
          <mxGeometry x="471.25" y="510" width="352.5" height="33" as="geometry" />
        </mxCell>
        <mxCell id="2N2N0fNqwzzeD85MLVDU-51" value="D101" style="strokeWidth=1;shadow=0;dashed=0;align=center;html=1;shape=mxgraph.mockup.forms.rrect;fillColor=#ffffff;rSize=0;fontColor=#666666;align=left;spacingLeft=3;strokeColor=#999999;" parent="1" vertex="1">
          <mxGeometry x="471.25" y="570" width="352.5" height="33" as="geometry" />
        </mxCell>
        <mxCell id="2N2N0fNqwzzeD85MLVDU-52" value="Address" style="strokeWidth=1;shadow=0;dashed=0;align=center;html=1;shape=mxgraph.mockup.forms.anchor;align=right;spacingRight=2;fontColor=#666666;" parent="1" vertex="1">
          <mxGeometry x="418.75" y="570" width="50" height="33" as="geometry" />
        </mxCell>
        <mxCell id="2N2N0fNqwzzeD85MLVDU-53" value="Phone Number" style="strokeWidth=1;shadow=0;dashed=0;align=center;html=1;shape=mxgraph.mockup.forms.anchor;align=right;spacingRight=2;fontColor=#666666;" parent="1" vertex="1">
          <mxGeometry x="418.75" y="510" width="50" height="33" as="geometry" />
        </mxCell>
        <mxCell id="2N2N0fNqwzzeD85MLVDU-54" value="********" style="strokeWidth=1;shadow=0;dashed=0;align=center;html=1;shape=mxgraph.mockup.forms.pwField;strokeColor=#999999;mainText=;align=left;fontColor=#666666;fontSize=17;spacingLeft=3;" parent="1" vertex="1">
          <mxGeometry x="470.63" y="392" width="353.75" height="33" as="geometry" />
        </mxCell>
        <mxCell id="2N2N0fNqwzzeD85MLVDU-56" value="********" style="strokeWidth=1;shadow=0;dashed=0;align=center;html=1;shape=mxgraph.mockup.forms.pwField;strokeColor=#999999;mainText=;align=left;fontColor=#666666;fontSize=17;spacingLeft=3;" parent="1" vertex="1">
          <mxGeometry x="470.63" y="450" width="353.75" height="33" as="geometry" />
        </mxCell>
        <mxCell id="2N2N0fNqwzzeD85MLVDU-57" value="I accept the &lt;font color=&quot;#007fff&quot;&gt;&lt;u&gt;Terms of Use&lt;/u&gt;&lt;/font&gt; &amp;amp; &lt;u&gt;&lt;font color=&quot;#007fff&quot;&gt;Privacy Policy&lt;/font&gt;&lt;/u&gt;" style="strokeWidth=1;shadow=0;dashed=0;align=center;html=1;shape=mxgraph.mockup.forms.rrect;rSize=0;fillColor=#eeeeee;strokeColor=#999999;gradientColor=#cccccc;align=left;spacingLeft=4;fontSize=17;fontColor=#666666;labelPosition=right;" parent="1" vertex="1">
          <mxGeometry x="456.25" y="640" width="15" height="15" as="geometry" />
        </mxCell>
        <mxCell id="2N2N0fNqwzzeD85MLVDU-58" value="Already have an account? &lt;u&gt;&lt;font color=&quot;#007fff&quot;&gt;Sign in&lt;/font&gt;&lt;/u&gt;" style="text;html=1;points=[];align=left;verticalAlign=top;spacingTop=-4;fontSize=16;fontFamily=Verdana" parent="1" vertex="1">
          <mxGeometry x="497.5" y="780" width="300" height="20" as="geometry" />
        </mxCell>
      </root>
    </mxGraphModel>
  </diagram>
</mxfile>
